<mxfile host="app.diagrams.net" modified="2020-09-18T08:13:29.191Z" agent="5.0 (Windows NT 6.1; Win64; x64) AppleWebKit/537.36 (KHTML, like Gecko) Chrome/85.0.4183.102 Safari/537.36" etag="XXJf1-yskiX2nB5rBsvT" version="13.7.2" type="github">
  <diagram name="Page-1" id="e7e014a7-5840-1c2e-5031-d8a46d1fe8dd">
    <mxGraphModel dx="864" dy="450" grid="1" gridSize="10" guides="1" tooltips="1" connect="1" arrows="1" fold="1" page="1" pageScale="1" pageWidth="1169" pageHeight="826" math="0" shadow="0">
      <root>
        <mxCell id="0" />
        <mxCell id="1" parent="0" />
        <mxCell id="dJ-tKdc6WlXgyyHmhy7r-41" value="Admin" style="shape=umlActor;verticalLabelPosition=bottom;verticalAlign=top;html=1;" vertex="1" parent="1">
          <mxGeometry x="70" y="85" width="30" height="60" as="geometry" />
        </mxCell>
        <mxCell id="dJ-tKdc6WlXgyyHmhy7r-42" value="Utilisateur" style="shape=umlActor;verticalLabelPosition=bottom;verticalAlign=top;html=1;" vertex="1" parent="1">
          <mxGeometry x="60" y="460" width="30" height="60" as="geometry" />
        </mxCell>
        <mxCell id="dJ-tKdc6WlXgyyHmhy7r-44" value="Gestion d&#39;utilisateur" style="ellipse;whiteSpace=wrap;html=1;" vertex="1" parent="1">
          <mxGeometry x="400" y="40" width="140" height="70" as="geometry" />
        </mxCell>
        <mxCell id="dJ-tKdc6WlXgyyHmhy7r-45" value="Gestion D&#39;evenement" style="ellipse;whiteSpace=wrap;html=1;" vertex="1" parent="1">
          <mxGeometry x="420" y="230" width="140" height="70" as="geometry" />
        </mxCell>
        <mxCell id="dJ-tKdc6WlXgyyHmhy7r-46" value="Validation" style="ellipse;whiteSpace=wrap;html=1;" vertex="1" parent="1">
          <mxGeometry x="230" y="180" width="90" height="50" as="geometry" />
        </mxCell>
        <mxCell id="dJ-tKdc6WlXgyyHmhy7r-47" value="suppression&amp;nbsp;" style="ellipse;whiteSpace=wrap;html=1;" vertex="1" parent="1">
          <mxGeometry x="210" y="270" width="90" height="50" as="geometry" />
        </mxCell>
        <mxCell id="dJ-tKdc6WlXgyyHmhy7r-48" value="Modification" style="ellipse;whiteSpace=wrap;html=1;" vertex="1" parent="1">
          <mxGeometry x="590" y="300" width="90" height="50" as="geometry" />
        </mxCell>
        <mxCell id="dJ-tKdc6WlXgyyHmhy7r-49" value="crée une événement&amp;nbsp;" style="ellipse;whiteSpace=wrap;html=1;" vertex="1" parent="1">
          <mxGeometry x="640" y="230" width="90" height="50" as="geometry" />
        </mxCell>
        <mxCell id="dJ-tKdc6WlXgyyHmhy7r-50" value="fermer une événement" style="ellipse;whiteSpace=wrap;html=1;" vertex="1" parent="1">
          <mxGeometry x="640" y="155" width="90" height="55" as="geometry" />
        </mxCell>
        <mxCell id="dJ-tKdc6WlXgyyHmhy7r-51" value="Inscription&amp;nbsp;" style="ellipse;whiteSpace=wrap;html=1;" vertex="1" parent="1">
          <mxGeometry x="430" y="413" width="140" height="70" as="geometry" />
        </mxCell>
        <mxCell id="dJ-tKdc6WlXgyyHmhy7r-52" value="Générer le compte&amp;nbsp;" style="ellipse;whiteSpace=wrap;html=1;" vertex="1" parent="1">
          <mxGeometry x="430" y="500" width="140" height="70" as="geometry" />
        </mxCell>
        <mxCell id="dJ-tKdc6WlXgyyHmhy7r-53" value="Gestion de reservation&amp;nbsp;" style="ellipse;whiteSpace=wrap;html=1;" vertex="1" parent="1">
          <mxGeometry x="430" y="590" width="140" height="70" as="geometry" />
        </mxCell>
        <mxCell id="dJ-tKdc6WlXgyyHmhy7r-54" value="Gestion de Feed_Back" style="ellipse;whiteSpace=wrap;html=1;" vertex="1" parent="1">
          <mxGeometry x="445" y="720" width="140" height="70" as="geometry" />
        </mxCell>
        <mxCell id="dJ-tKdc6WlXgyyHmhy7r-55" value="Authentification" style="ellipse;whiteSpace=wrap;html=1;" vertex="1" parent="1">
          <mxGeometry x="730" y="483" width="140" height="50" as="geometry" />
        </mxCell>
        <mxCell id="dJ-tKdc6WlXgyyHmhy7r-56" value="suppression&amp;nbsp;" style="ellipse;whiteSpace=wrap;html=1;" vertex="1" parent="1">
          <mxGeometry x="580" y="640" width="80" height="50" as="geometry" />
        </mxCell>
        <mxCell id="dJ-tKdc6WlXgyyHmhy7r-57" value="Participation&amp;nbsp;" style="ellipse;whiteSpace=wrap;html=1;" vertex="1" parent="1">
          <mxGeometry x="340" y="650" width="90" height="50" as="geometry" />
        </mxCell>
        <mxCell id="dJ-tKdc6WlXgyyHmhy7r-58" value="" style="endArrow=open;endFill=1;endSize=12;html=1;exitX=0;exitY=0.5;exitDx=0;exitDy=0;" edge="1" parent="1" source="dJ-tKdc6WlXgyyHmhy7r-53" target="dJ-tKdc6WlXgyyHmhy7r-57">
          <mxGeometry width="160" relative="1" as="geometry">
            <mxPoint x="369" y="546" as="sourcePoint" />
            <mxPoint x="350" y="533" as="targetPoint" />
          </mxGeometry>
        </mxCell>
        <mxCell id="dJ-tKdc6WlXgyyHmhy7r-59" value="" style="endArrow=open;endFill=1;endSize=12;html=1;entryX=0.5;entryY=0;entryDx=0;entryDy=0;exitX=1;exitY=0.5;exitDx=0;exitDy=0;" edge="1" parent="1" source="dJ-tKdc6WlXgyyHmhy7r-53" target="dJ-tKdc6WlXgyyHmhy7r-56">
          <mxGeometry width="160" relative="1" as="geometry">
            <mxPoint x="505" y="510" as="sourcePoint" />
            <mxPoint x="665" y="510" as="targetPoint" />
          </mxGeometry>
        </mxCell>
        <mxCell id="dJ-tKdc6WlXgyyHmhy7r-60" value="" style="endArrow=open;endFill=1;endSize=12;html=1;entryX=0;entryY=0.5;entryDx=0;entryDy=0;exitX=1;exitY=0;exitDx=0;exitDy=0;" edge="1" parent="1" source="dJ-tKdc6WlXgyyHmhy7r-45" target="dJ-tKdc6WlXgyyHmhy7r-50">
          <mxGeometry width="160" relative="1" as="geometry">
            <mxPoint x="255" y="240" as="sourcePoint" />
            <mxPoint x="335" y="240" as="targetPoint" />
          </mxGeometry>
        </mxCell>
        <mxCell id="dJ-tKdc6WlXgyyHmhy7r-61" value="" style="endArrow=open;endFill=1;endSize=12;html=1;entryX=1;entryY=0.5;entryDx=0;entryDy=0;exitX=0;exitY=0;exitDx=0;exitDy=0;" edge="1" parent="1" source="dJ-tKdc6WlXgyyHmhy7r-45" target="dJ-tKdc6WlXgyyHmhy7r-46">
          <mxGeometry width="160" relative="1" as="geometry">
            <mxPoint x="410" y="245" as="sourcePoint" />
            <mxPoint x="400" y="300" as="targetPoint" />
          </mxGeometry>
        </mxCell>
        <mxCell id="dJ-tKdc6WlXgyyHmhy7r-62" value="" style="endArrow=open;endFill=1;endSize=12;html=1;entryX=0.967;entryY=0.26;entryDx=0;entryDy=0;entryPerimeter=0;exitX=0.021;exitY=0.643;exitDx=0;exitDy=0;exitPerimeter=0;" edge="1" parent="1" source="dJ-tKdc6WlXgyyHmhy7r-45" target="dJ-tKdc6WlXgyyHmhy7r-47">
          <mxGeometry width="160" relative="1" as="geometry">
            <mxPoint x="418" y="245" as="sourcePoint" />
            <mxPoint x="485" y="324" as="targetPoint" />
          </mxGeometry>
        </mxCell>
        <mxCell id="dJ-tKdc6WlXgyyHmhy7r-63" value="" style="endArrow=open;endFill=1;endSize=12;html=1;exitX=1;exitY=1;exitDx=0;exitDy=0;" edge="1" parent="1" source="dJ-tKdc6WlXgyyHmhy7r-45" target="dJ-tKdc6WlXgyyHmhy7r-48">
          <mxGeometry width="160" relative="1" as="geometry">
            <mxPoint x="460" y="310" as="sourcePoint" />
            <mxPoint x="620" y="310" as="targetPoint" />
          </mxGeometry>
        </mxCell>
        <mxCell id="dJ-tKdc6WlXgyyHmhy7r-64" value="" style="endArrow=open;endFill=1;endSize=12;html=1;entryX=0;entryY=0.5;entryDx=0;entryDy=0;exitX=1;exitY=0.5;exitDx=0;exitDy=0;" edge="1" parent="1" source="dJ-tKdc6WlXgyyHmhy7r-45" target="dJ-tKdc6WlXgyyHmhy7r-49">
          <mxGeometry width="160" relative="1" as="geometry">
            <mxPoint x="530" y="220" as="sourcePoint" />
            <mxPoint x="670" y="244.5" as="targetPoint" />
          </mxGeometry>
        </mxCell>
        <mxCell id="dJ-tKdc6WlXgyyHmhy7r-65" value="" style="endArrow=open;endFill=1;endSize=12;html=1;entryX=0;entryY=0.5;entryDx=0;entryDy=0;" edge="1" parent="1" target="dJ-tKdc6WlXgyyHmhy7r-44">
          <mxGeometry width="160" relative="1" as="geometry">
            <mxPoint x="130" y="120" as="sourcePoint" />
            <mxPoint x="290" y="130" as="targetPoint" />
          </mxGeometry>
        </mxCell>
        <mxCell id="dJ-tKdc6WlXgyyHmhy7r-67" value="" style="endArrow=open;endFill=1;endSize=12;html=1;entryX=0;entryY=0.5;entryDx=0;entryDy=0;" edge="1" parent="1" target="dJ-tKdc6WlXgyyHmhy7r-51">
          <mxGeometry width="160" relative="1" as="geometry">
            <mxPoint x="140" y="489.5" as="sourcePoint" />
            <mxPoint x="410" y="450" as="targetPoint" />
          </mxGeometry>
        </mxCell>
        <mxCell id="dJ-tKdc6WlXgyyHmhy7r-69" value="" style="endArrow=open;endFill=1;endSize=12;html=1;entryX=0;entryY=0.5;entryDx=0;entryDy=0;" edge="1" parent="1" target="dJ-tKdc6WlXgyyHmhy7r-52">
          <mxGeometry width="160" relative="1" as="geometry">
            <mxPoint x="140" y="489.5" as="sourcePoint" />
            <mxPoint x="420" y="530" as="targetPoint" />
          </mxGeometry>
        </mxCell>
        <mxCell id="dJ-tKdc6WlXgyyHmhy7r-70" value="" style="endArrow=open;endFill=1;endSize=12;html=1;entryX=0.057;entryY=0.271;entryDx=0;entryDy=0;entryPerimeter=0;" edge="1" parent="1" target="dJ-tKdc6WlXgyyHmhy7r-53">
          <mxGeometry width="160" relative="1" as="geometry">
            <mxPoint x="140" y="490" as="sourcePoint" />
            <mxPoint x="420" y="610" as="targetPoint" />
          </mxGeometry>
        </mxCell>
        <mxCell id="dJ-tKdc6WlXgyyHmhy7r-71" value="" style="endArrow=open;endFill=1;endSize=12;html=1;entryX=0.014;entryY=0.614;entryDx=0;entryDy=0;entryPerimeter=0;" edge="1" parent="1" target="dJ-tKdc6WlXgyyHmhy7r-54">
          <mxGeometry width="160" relative="1" as="geometry">
            <mxPoint x="140" y="490" as="sourcePoint" />
            <mxPoint x="290" y="580" as="targetPoint" />
            <Array as="points">
              <mxPoint x="240" y="740" />
            </Array>
          </mxGeometry>
        </mxCell>
        <mxCell id="dJ-tKdc6WlXgyyHmhy7r-72" value="" style="endArrow=open;endFill=1;endSize=12;html=1;entryX=0;entryY=1;entryDx=0;entryDy=0;" edge="1" parent="1" target="dJ-tKdc6WlXgyyHmhy7r-45">
          <mxGeometry width="160" relative="1" as="geometry">
            <mxPoint x="140" y="490" as="sourcePoint" />
            <mxPoint x="290" y="447.5" as="targetPoint" />
          </mxGeometry>
        </mxCell>
        <mxCell id="dJ-tKdc6WlXgyyHmhy7r-73" value="" style="endArrow=open;endFill=1;endSize=12;html=1;" edge="1" parent="1">
          <mxGeometry width="160" relative="1" as="geometry">
            <mxPoint x="130" y="120" as="sourcePoint" />
            <mxPoint x="254" y="180" as="targetPoint" />
          </mxGeometry>
        </mxCell>
        <mxCell id="dJ-tKdc6WlXgyyHmhy7r-74" value="" style="endArrow=open;endFill=1;endSize=12;html=1;entryX=0;entryY=0;entryDx=0;entryDy=0;" edge="1" parent="1" target="dJ-tKdc6WlXgyyHmhy7r-47">
          <mxGeometry width="160" relative="1" as="geometry">
            <mxPoint x="130" y="120" as="sourcePoint" />
            <mxPoint x="250" y="220" as="targetPoint" />
          </mxGeometry>
        </mxCell>
        <mxCell id="dJ-tKdc6WlXgyyHmhy7r-76" value="" style="endArrow=open;endFill=1;endSize=12;html=1;entryX=0;entryY=0.34;entryDx=0;entryDy=0;entryPerimeter=0;exitX=1;exitY=0.5;exitDx=0;exitDy=0;" edge="1" parent="1" source="dJ-tKdc6WlXgyyHmhy7r-51" target="dJ-tKdc6WlXgyyHmhy7r-55">
          <mxGeometry width="160" relative="1" as="geometry">
            <mxPoint x="570" y="447.5" as="sourcePoint" />
            <mxPoint x="730" y="447.5" as="targetPoint" />
          </mxGeometry>
        </mxCell>
        <mxCell id="dJ-tKdc6WlXgyyHmhy7r-77" value="" style="endArrow=open;endFill=1;endSize=12;html=1;entryX=0;entryY=0.5;entryDx=0;entryDy=0;exitX=1;exitY=0.5;exitDx=0;exitDy=0;" edge="1" parent="1" source="dJ-tKdc6WlXgyyHmhy7r-52" target="dJ-tKdc6WlXgyyHmhy7r-55">
          <mxGeometry width="160" relative="1" as="geometry">
            <mxPoint x="585" y="580" as="sourcePoint" />
            <mxPoint x="745" y="580" as="targetPoint" />
          </mxGeometry>
        </mxCell>
        <mxCell id="dJ-tKdc6WlXgyyHmhy7r-78" value="" style="endArrow=open;endFill=1;endSize=12;html=1;entryX=0.029;entryY=0.74;entryDx=0;entryDy=0;entryPerimeter=0;exitX=0.986;exitY=0.286;exitDx=0;exitDy=0;exitPerimeter=0;" edge="1" parent="1" source="dJ-tKdc6WlXgyyHmhy7r-53" target="dJ-tKdc6WlXgyyHmhy7r-55">
          <mxGeometry width="160" relative="1" as="geometry">
            <mxPoint x="650" y="624.5" as="sourcePoint" />
            <mxPoint x="810" y="624.5" as="targetPoint" />
          </mxGeometry>
        </mxCell>
        <mxCell id="dJ-tKdc6WlXgyyHmhy7r-79" value="" style="endArrow=open;endFill=1;endSize=12;html=1;entryX=0.5;entryY=1;entryDx=0;entryDy=0;exitX=1;exitY=0.5;exitDx=0;exitDy=0;" edge="1" parent="1" source="dJ-tKdc6WlXgyyHmhy7r-54" target="dJ-tKdc6WlXgyyHmhy7r-55">
          <mxGeometry width="160" relative="1" as="geometry">
            <mxPoint x="510" y="790" as="sourcePoint" />
            <mxPoint x="640" y="774.5" as="targetPoint" />
            <Array as="points">
              <mxPoint x="700" y="750" />
            </Array>
          </mxGeometry>
        </mxCell>
        <mxCell id="dJ-tKdc6WlXgyyHmhy7r-80" value="" style="endArrow=open;endFill=1;endSize=12;html=1;entryX=0.257;entryY=0.08;entryDx=0;entryDy=0;entryPerimeter=0;exitX=0.5;exitY=1;exitDx=0;exitDy=0;" edge="1" parent="1" source="dJ-tKdc6WlXgyyHmhy7r-45" target="dJ-tKdc6WlXgyyHmhy7r-55">
          <mxGeometry width="160" relative="1" as="geometry">
            <mxPoint x="445" y="370" as="sourcePoint" />
            <mxPoint x="605" y="370" as="targetPoint" />
          </mxGeometry>
        </mxCell>
      </root>
    </mxGraphModel>
  </diagram>
</mxfile>
